<?xml version="1.0" encoding="UTF-8" standalone="no"?>
<!DOCTYPE svg PUBLIC "-//W3C//DTD SVG 1.1//EN"
 "http://www.w3.org/Graphics/SVG/1.1/DTD/svg11.dtd">
<!-- Generated by graphviz version 2.40.1 (20161225.0304)
 -->
<!-- Title: state transitions Pages: 1 -->
<svg width="298pt" height="598pt"
 viewBox="0.00 0.00 298.00 598.00" xmlns="http://www.w3.org/2000/svg" xmlns:xlink="http://www.w3.org/1999/xlink">
<g id="graph0" class="graph" transform="scale(1 1) rotate(0) translate(4 594)">
<title>state transitions</title>
<polygon fill="#ffffff" stroke="transparent" points="-4,4 -4,-594 294,-594 294,4 -4,4"/>
<g id="clust1" class="cluster state regular">
<title>cluster_state</title>
<path fill="none" stroke="#000000" stroke-width="2" d="M20,-8C20,-8 270,-8 270,-8 276,-8 282,-14 282,-20 282,-20 282,-570 282,-570 282,-576 276,-582 270,-582 270,-582 20,-582 20,-582 14,-582 8,-576 8,-570 8,-570 8,-20 8,-20 8,-14 14,-8 20,-8"/>
<text text-anchor="start" x="131.9944" y="-563.2" font-family="Helvetica,sans-Serif" font-size="12.00" fill="#000000">state</text>
</g>
<!-- state -->
<!-- IDLE -->
<g id="node2" class="node state regular">
<title>IDLE</title>
<polygon fill="#ffffff" fill-opacity="0.003922" stroke="transparent" stroke-width="2" points="92,-544 36,-544 36,-508 92,-508 92,-544"/>
<text text-anchor="start" x="50.6644" y="-522.2" font-family="Helvetica,sans-Serif" font-size="12.00" fill="#000000">IDLE</text>
<path fill="none" stroke="#000000" stroke-width="2" d="M48.3333,-509C48.3333,-509 79.6667,-509 79.6667,-509 85.3333,-509 91,-514.6667 91,-520.3333 91,-520.3333 91,-531.6667 91,-531.6667 91,-537.3333 85.3333,-543 79.6667,-543 79.6667,-543 48.3333,-543 48.3333,-543 42.6667,-543 37,-537.3333 37,-531.6667 37,-531.6667 37,-520.3333 37,-520.3333 37,-514.6667 42.6667,-509 48.3333,-509"/>
</g>
<!-- READ -->
<g id="node3" class="node state regular">
<title>READ</title>
<polygon fill="#ffffff" fill-opacity="0.003922" stroke="transparent" stroke-width="2" points="92,-462 36,-462 36,-426 92,-426 92,-462"/>
<text text-anchor="start" x="47.3344" y="-440.2" font-family="Helvetica,sans-Serif" font-size="12.00" fill="#000000">READ</text>
<path fill="none" stroke="#000000" stroke-width="2" d="M48.3333,-427C48.3333,-427 79.6667,-427 79.6667,-427 85.3333,-427 91,-432.6667 91,-438.3333 91,-438.3333 91,-449.6667 91,-449.6667 91,-455.3333 85.3333,-461 79.6667,-461 79.6667,-461 48.3333,-461 48.3333,-461 42.6667,-461 37,-455.3333 37,-449.6667 37,-449.6667 37,-438.3333 37,-438.3333 37,-432.6667 42.6667,-427 48.3333,-427"/>
</g>
<!-- IDLE&#45;&gt;READ -->
<g id="edge1" class="edge transition">
<title>IDLE&#45;&gt;READ</title>
<path fill="none" stroke="#000000" d="M64,-507.8015C64,-497.3976 64,-484.1215 64,-472.3768"/>
<polygon fill="#000000" stroke="#000000" points="67.5001,-472.1476 64,-462.1476 60.5001,-472.1476 67.5001,-472.1476"/>
<text text-anchor="start" x="64" y="-482" font-family="Helvetica,sans-Serif" font-size="10.00" fill="#000000">input_file &amp;&amp; output_file &#160;&#160;</text>
</g>
<!-- CONV -->
<g id="node4" class="node state regular">
<title>CONV</title>
<polygon fill="#ffffff" fill-opacity="0.003922" stroke="transparent" stroke-width="2" points="76,-380 20,-380 20,-344 76,-344 76,-380"/>
<text text-anchor="start" x="30.6684" y="-358.2" font-family="Helvetica,sans-Serif" font-size="12.00" fill="#000000">CONV</text>
<path fill="none" stroke="#000000" stroke-width="2" d="M32.3333,-345C32.3333,-345 63.6667,-345 63.6667,-345 69.3333,-345 75,-350.6667 75,-356.3333 75,-356.3333 75,-367.6667 75,-367.6667 75,-373.3333 69.3333,-379 63.6667,-379 63.6667,-379 32.3333,-379 32.3333,-379 26.6667,-379 21,-373.3333 21,-367.6667 21,-367.6667 21,-356.3333 21,-356.3333 21,-350.6667 26.6667,-345 32.3333,-345"/>
</g>
<!-- READ&#45;&gt;CONV -->
<g id="edge2" class="edge transition">
<title>READ&#45;&gt;CONV</title>
<path fill="none" stroke="#000000" d="M59.1199,-425.9075C57.7523,-420.4934 56.3362,-414.5268 55.221,-409 54.0076,-402.9864 52.8902,-396.5036 51.9153,-390.3308"/>
<polygon fill="#000000" stroke="#000000" points="55.366,-389.7408 50.4173,-380.3727 48.4439,-390.7821 55.366,-389.7408"/>
<text text-anchor="middle" x="56.3895" y="-400" font-family="Helvetica,sans-Serif" font-size="10.00" fill="#000000"> </text>
</g>
<!-- CONV&#45;&gt;READ -->
<g id="edge4" class="edge transition">
<title>CONV&#45;&gt;READ</title>
<path fill="none" stroke="#000000" d="M54.5619,-380.0992C55.4305,-382.7344 56.2712,-385.4263 57,-388 59.9418,-398.3883 61.059,-402.4518 62.62,-415.738"/>
<polygon fill="#000000" stroke="#000000" points="59.171,-416.3979 63.7335,-425.96 66.1299,-415.6398 59.171,-416.3979"/>
<text text-anchor="start" x="61" y="-400" font-family="Helvetica,sans-Serif" font-size="10.00" fill="#000000">not (window_index == window_count &#45; 1) &#160;&#160;</text>
</g>
<!-- SQRT -->
<g id="node5" class="node state regular">
<title>SQRT</title>
<polygon fill="#ffffff" fill-opacity="0.003922" stroke="transparent" stroke-width="2" points="76,-298 20,-298 20,-262 76,-262 76,-298"/>
<text text-anchor="start" x="31.3344" y="-276.2" font-family="Helvetica,sans-Serif" font-size="12.00" fill="#000000">SQRT</text>
<path fill="none" stroke="#000000" stroke-width="2" d="M32.3333,-263C32.3333,-263 63.6667,-263 63.6667,-263 69.3333,-263 75,-268.6667 75,-274.3333 75,-274.3333 75,-285.6667 75,-285.6667 75,-291.3333 69.3333,-297 63.6667,-297 63.6667,-297 32.3333,-297 32.3333,-297 26.6667,-297 21,-291.3333 21,-285.6667 21,-285.6667 21,-274.3333 21,-274.3333 21,-268.6667 26.6667,-263 32.3333,-263"/>
</g>
<!-- CONV&#45;&gt;SQRT -->
<g id="edge3" class="edge transition">
<title>CONV&#45;&gt;SQRT</title>
<path fill="none" stroke="#000000" d="M48,-343.8015C48,-333.3976 48,-320.1215 48,-308.3768"/>
<polygon fill="#000000" stroke="#000000" points="51.5001,-308.1476 48,-298.1476 44.5001,-308.1476 51.5001,-308.1476"/>
<text text-anchor="start" x="48" y="-318" font-family="Helvetica,sans-Serif" font-size="10.00" fill="#000000">window_index == window_count &#45; 1 &#160;&#160;</text>
</g>
<!-- SQRT&#45;&gt;SQRT -->
<g id="edge6" class="edge transition">
<title>SQRT&#45;&gt;SQRT</title>
<path fill="none" stroke="#000000" d="M76.0183,-284.8247C87.888,-285.1883 98,-283.5801 98,-280 98,-277.5387 93.2205,-276.0094 86.3762,-275.4121"/>
<polygon fill="#000000" stroke="#000000" points="86.0957,-271.9049 76.0183,-275.1753 85.9356,-278.903 86.0957,-271.9049"/>
<text text-anchor="start" x="98" y="-277" font-family="Helvetica,sans-Serif" font-size="10.00" fill="#000000">not (window_index == window_count) &#160;&#160;</text>
</g>
<!-- MAG -->
<g id="node6" class="node state regular">
<title>MAG</title>
<polygon fill="#ffffff" fill-opacity="0.003922" stroke="transparent" stroke-width="2" points="76,-216 20,-216 20,-180 76,-180 76,-216"/>
<text text-anchor="start" x="34.3338" y="-194.2" font-family="Helvetica,sans-Serif" font-size="12.00" fill="#000000">MAG</text>
<path fill="none" stroke="#000000" stroke-width="2" d="M32.3333,-181C32.3333,-181 63.6667,-181 63.6667,-181 69.3333,-181 75,-186.6667 75,-192.3333 75,-192.3333 75,-203.6667 75,-203.6667 75,-209.3333 69.3333,-215 63.6667,-215 63.6667,-215 32.3333,-215 32.3333,-215 26.6667,-215 21,-209.3333 21,-203.6667 21,-203.6667 21,-192.3333 21,-192.3333 21,-186.6667 26.6667,-181 32.3333,-181"/>
</g>
<!-- SQRT&#45;&gt;MAG -->
<g id="edge5" class="edge transition">
<title>SQRT&#45;&gt;MAG</title>
<path fill="none" stroke="#000000" d="M48,-261.8015C48,-251.3976 48,-238.1215 48,-226.3768"/>
<polygon fill="#000000" stroke="#000000" points="51.5001,-226.1476 48,-216.1476 44.5001,-226.1476 51.5001,-226.1476"/>
<text text-anchor="start" x="48" y="-236" font-family="Helvetica,sans-Serif" font-size="10.00" fill="#000000">window_index == window_count &#160;&#160;</text>
</g>
<!-- MAG&#45;&gt;MAG -->
<g id="edge8" class="edge transition">
<title>MAG&#45;&gt;MAG</title>
<path fill="none" stroke="#000000" d="M76.0183,-202.8247C87.888,-203.1883 98,-201.5801 98,-198 98,-195.5387 93.2205,-194.0094 86.3762,-193.4121"/>
<polygon fill="#000000" stroke="#000000" points="86.0957,-189.9049 76.0183,-193.1753 85.9356,-196.903 86.0957,-189.9049"/>
<text text-anchor="start" x="98" y="-195" font-family="Helvetica,sans-Serif" font-size="10.00" fill="#000000">not (window_index == window_count) &#160;&#160;</text>
</g>
<!-- WRTE -->
<g id="node7" class="node state regular">
<title>WRTE</title>
<polygon fill="#ffffff" fill-opacity="0.003922" stroke="transparent" stroke-width="2" points="76.5,-134 19.5,-134 19.5,-98 76.5,-98 76.5,-134"/>
<text text-anchor="start" x="30.8384" y="-112.2" font-family="Helvetica,sans-Serif" font-size="12.00" fill="#000000">WRTE</text>
<path fill="none" stroke="#000000" stroke-width="2" d="M31.8333,-99C31.8333,-99 64.1667,-99 64.1667,-99 69.8333,-99 75.5,-104.6667 75.5,-110.3333 75.5,-110.3333 75.5,-121.6667 75.5,-121.6667 75.5,-127.3333 69.8333,-133 64.1667,-133 64.1667,-133 31.8333,-133 31.8333,-133 26.1667,-133 20.5,-127.3333 20.5,-121.6667 20.5,-121.6667 20.5,-110.3333 20.5,-110.3333 20.5,-104.6667 26.1667,-99 31.8333,-99"/>
</g>
<!-- MAG&#45;&gt;WRTE -->
<g id="edge7" class="edge transition">
<title>MAG&#45;&gt;WRTE</title>
<path fill="none" stroke="#000000" d="M48,-179.8015C48,-169.3976 48,-156.1215 48,-144.3768"/>
<polygon fill="#000000" stroke="#000000" points="51.5001,-144.1476 48,-134.1476 44.5001,-144.1476 51.5001,-144.1476"/>
<text text-anchor="start" x="48" y="-154" font-family="Helvetica,sans-Serif" font-size="10.00" fill="#000000">window_index == window_count &#160;&#160;</text>
</g>
<!-- WRTE&#45;&gt;WRTE -->
<g id="edge10" class="edge transition">
<title>WRTE&#45;&gt;WRTE</title>
<path fill="none" stroke="#000000" d="M76.5532,-120.8322C88.4312,-121.1654 98.5,-119.5547 98.5,-116 98.5,-113.5562 93.7409,-112.0311 86.9067,-111.4249"/>
<polygon fill="#000000" stroke="#000000" points="86.6371,-107.9173 76.5532,-111.1678 86.4632,-114.9151 86.6371,-107.9173"/>
<text text-anchor="start" x="98.5" y="-113" font-family="Helvetica,sans-Serif" font-size="10.00" fill="#000000">not (window_index == window_count) &#160;&#160;</text>
</g>
<!-- DONE -->
<g id="node8" class="node state regular">
<title>DONE</title>
<polygon fill="#ffffff" fill-opacity="0.003922" stroke="transparent" stroke-width="2" points="76,-52 20,-52 20,-16 76,-16 76,-52"/>
<text text-anchor="start" x="30.6684" y="-30.2" font-family="Helvetica,sans-Serif" font-size="12.00" fill="#000000">DONE</text>
<path fill="none" stroke="#000000" stroke-width="2" d="M32.3333,-17C32.3333,-17 63.6667,-17 63.6667,-17 69.3333,-17 75,-22.6667 75,-28.3333 75,-28.3333 75,-39.6667 75,-39.6667 75,-45.3333 69.3333,-51 63.6667,-51 63.6667,-51 32.3333,-51 32.3333,-51 26.6667,-51 21,-45.3333 21,-39.6667 21,-39.6667 21,-28.3333 21,-28.3333 21,-22.6667 26.6667,-17 32.3333,-17"/>
</g>
<!-- WRTE&#45;&gt;DONE -->
<g id="edge9" class="edge transition">
<title>WRTE&#45;&gt;DONE</title>
<path fill="none" stroke="#000000" d="M48,-97.8015C48,-87.3976 48,-74.1215 48,-62.3768"/>
<polygon fill="#000000" stroke="#000000" points="51.5001,-62.1476 48,-52.1476 44.5001,-62.1476 51.5001,-62.1476"/>
<text text-anchor="start" x="48" y="-72" font-family="Helvetica,sans-Serif" font-size="10.00" fill="#000000">window_index == window_count &#160;&#160;</text>
</g>
</g>
</svg>
